<svg xmlns="http://www.w3.org/2000/svg" width="995px" height="559px" x="0px" y="0px" viewBox="0 0 263.26041 147.90209"><g fill="#B7B7B7"><path d="M96.527 50.147c0-2.755.568-4.992 1.702-6.711 1.135-1.72 2.807-2.579 5.017-2.579 2.21 0 3.877.86 5.002 2.579 1.124 1.72 1.687 3.966 1.687 6.741 0 2.775-.563 5.022-1.687 6.741-1.125 1.72-2.792 2.58-5.002 2.58s-3.882-.865-5.017-2.595c-1.134-1.729-1.702-3.981-1.702-6.756zm9.735 5.113c.697-1.277 1.045-2.971 1.045-5.083 0-2.111-.348-3.81-1.045-5.097-.697-1.287-1.702-1.93-3.016-1.93-1.294 0-2.29.643-2.986 1.93-.697 1.287-1.045 2.986-1.045 5.097 0 2.112.348 3.806 1.045 5.083.697 1.277 1.692 1.915 2.986 1.915 1.314 0 2.32-.638 3.016-1.915zm10.87 9.968h-2.658V38.866h2.658zM135.317 58.502h-12.512V41.521h12.512zm-2.628-2.202V43.692h-7.256V56.3zm10.093 8.928h-2.628V38.866h2.628zM163.326 56.964l-1.553 1.99c-1.334-.784-2.638-1.915-3.912-3.393-1.274-1.478-2.11-2.92-2.508-4.328-.378 1.548-1.174 3.092-2.389 4.63-1.214 1.538-2.597 2.77-4.15 3.695l-1.673-1.93c2.05-1.227 3.703-2.881 4.957-4.962 1.254-2.082 1.882-4.369 1.882-6.862v-2.112h-5.913v-2.171h14.482v2.171h-5.852v2.112c0 2.453.617 4.66 1.851 6.62s2.827 3.474 4.778 4.54zm2.807-18.098h2.658v26.362h-2.658zM68.01 81.064c1.265-1.147 2.842-1.72 4.734-1.72 1.89 0 3.468.569 4.733 1.704 1.264 1.137 1.896 2.61 1.896 4.42 0 1.809-.632 3.262-1.896 4.358-1.265 1.096-2.842 1.644-4.733 1.644-1.892 0-3.47-.548-4.733-1.644-1.265-1.096-1.896-2.539-1.896-4.329 0-1.81.631-3.287 1.896-4.433zm4.734.542c-1.155 0-2.11.352-2.867 1.056-.756.704-1.135 1.629-1.135 2.775s.378 2.061 1.135 2.745c.756.683 1.712 1.025 2.867 1.025 1.154 0 2.1-.342 2.837-1.025.736-.684 1.105-1.589 1.105-2.715 0-1.166-.364-2.101-1.09-2.805-.727-.704-1.678-1.056-2.852-1.056zm14.512 22.501H70.474V93.611h2.628v3.137h11.496V93.55h2.658Zm-2.657-2.14v-3.108H73.102v3.107zm0-15.504h-4.151V84.29h4.15v-6.214h2.658v14.086H84.6zM115.236 101.091h-23.56V98.92h10.39v-4.163h-7.554v-8.475h15.17V82.42h-15.23v-2.172h17.857v8.204h-15.17v4.133h15.886v2.171h-8.3v4.163h10.51v2.171zM141.065 100.88h-23.56V98.71h23.56zm-2.807-7.722H120.55V80.671h17.469v2.172h-14.841v8.174h15.08v2.141zM157.13 80.28c2.329 0 3.98 1.317 4.956 3.95h3.554v-5.64h2.508v24.553h-2.508v-8.476h-3.613c-.976 2.594-2.608 3.89-4.898 3.89-1.871 0-3.295-.848-4.27-2.548-.975-1.7-1.463-3.916-1.463-6.65 0-2.695.488-4.882 1.463-6.561.975-1.679 2.399-2.519 4.27-2.519zm2.344 14.13c.547-1.256.82-2.93.82-5.022 0-2.09-.273-3.76-.82-5.007-.548-1.246-1.33-1.87-2.344-1.87-1.016 0-1.792.624-2.33 1.87-.537 1.247-.806 2.916-.806 5.007 0 2.112.269 3.791.806 5.038.538 1.247 1.314 1.87 2.33 1.87 1.015 0 1.796-.629 2.344-1.886zm6.166-7.978h-2.986c.159 1.006.239 1.991.239 2.956a17 17 0 0 1-.27 3.107h3.016v-6.063zm7.584 18.008h-2.538V78.077h2.538zM177.614 82.39V80.22h14.273v2.172h-5.703v.874c0 1.75.636 3.333 1.91 4.751 1.274 1.417 2.718 2.378 4.33 2.88l-1.463 2.142c-1.194-.482-2.378-1.251-3.553-2.307-1.175-1.056-2.02-2.167-2.538-3.333-.399 1.227-1.245 2.453-2.538 3.68-1.295 1.226-2.639 2.131-4.032 2.714l-1.493-2.111c1.792-.644 3.354-1.754 4.688-3.333 1.334-1.579 2.001-3.253 2.001-5.022v-.935h-5.882zm18.648 13.197c1.542.915 2.314 2.166 2.314 3.755s-.766 2.835-2.3 3.74c-1.532.905-3.702 1.358-6.509 1.358-2.767 0-4.922-.453-6.465-1.358-1.543-.905-2.314-2.151-2.314-3.74 0-1.589.771-2.84 2.314-3.755 1.543-.915 3.698-1.373 6.465-1.373 2.787 0 4.952.458 6.495 1.373zm-6.495.83c-1.911 0-3.404.256-4.479.768-1.075.513-1.613 1.232-1.613 2.157s.538 1.644 1.613 2.156c1.075.513 2.568.77 4.48.77 1.93 0 3.433-.257 4.508-.77 1.075-.512 1.613-1.231 1.613-2.156s-.538-1.644-1.613-2.157c-1.075-.512-2.578-.769-4.509-.769zm6.002-9.502h-4.867v-2.202h4.867v-6.636h2.658v16.349h-2.658z"/></g></svg>